<svg width="8" height="10" viewBox="0 0 8 10" fill="none" xmlns="http://www.w3.org/2000/svg">
<path d="M4.5 1.25C4.5 0.973858 4.27614 0.75 4 0.75C3.72386 0.75 3.5 0.973858 3.5 1.25L4.5 1.25ZM3.64645 9.10355C3.84171 9.29882 4.15829 9.29882 4.35355 9.10355L7.53553 5.92157C7.7308 5.72631 7.7308 5.40973 7.53553 5.21447C7.34027 5.0192 7.02369 5.0192 6.82843 5.21447L4 8.04289L1.17157 5.21447C0.976311 5.0192 0.659728 5.0192 0.464466 5.21447C0.269204 5.40973 0.269204 5.72631 0.464466 5.92157L3.64645 9.10355ZM3.5 1.25L3.5 8.75L4.5 8.75L4.5 1.25L3.5 1.25Z" fill="black"/>
</svg>
